<?xml version="1.0" encoding="utf-8"?>
<!-- Generator: Adobe Illustrator 17.0.0, SVG Export Plug-In . SVG Version: 6.00 Build 0)  -->
<!DOCTYPE svg PUBLIC "-//W3C//DTD SVG 1.1//EN" "http://www.w3.org/Graphics/SVG/1.1/DTD/svg11.dtd">
<svg version="1.1" id="图层_1" xmlns="http://www.w3.org/2000/svg" xmlns:xlink="http://www.w3.org/1999/xlink" x="0px" y="0px"
	 width="48.248px" height="48px" viewBox="0 0 48.248 48" enable-background="new 0 0 48.248 48" xml:space="preserve">
<g>
	<ellipse fill="#5FA1D1" cx="27.474" cy="24.163" rx="1.248" ry="1.208"/>
	<ellipse fill="#5FA1D1" cx="33.657" cy="24.163" rx="1.247" ry="1.208"/>
	<ellipse fill="#5FA1D1" cx="24.194" cy="16.964" rx="1.476" ry="1.43"/>
	<ellipse fill="#5FA1D1" cx="16.875" cy="16.964" rx="1.477" ry="1.43"/>
	<path fill="#5FA1D1" d="M23.875,0.501c-12.979,0-23.5,10.521-23.5,23.5s10.521,23.5,23.5,23.5c12.979,0,23.5-10.521,23.5-23.5
		S36.854,0.501,23.875,0.501z M20.534,28.789c-1.163,0-2.283-0.158-3.328-0.449c-0.06-0.017-0.179-0.051-0.179-0.051l-3.802,1.937
		l1.017-3.184c0,0-0.064-0.04-0.096-0.061c-2.51-1.607-4.128-4.14-4.128-6.988c0-4.858,4.708-8.796,10.517-8.796
		c5.261,0,9.62,3.231,10.395,7.451c-0.147-0.007-0.293-0.01-0.442-0.01c-5.29,0-9.58,3.596-9.58,8.031
		c0,0.726,0.118,1.43,0.334,2.099C21.007,28.78,20.772,28.789,20.534,28.789z M35.964,32.625c-0.027,0.017-0.082,0.051-0.082,0.051
		l0.858,2.69l-3.211-1.637c0,0-0.1,0.03-0.151,0.044c-0.883,0.247-1.829,0.38-2.811,0.38c-4.908,0-8.887-3.327-8.887-7.432
		c0-4.104,3.979-7.43,8.887-7.43c4.906,0,8.884,3.327,8.884,7.43C39.451,29.128,38.083,31.267,35.964,32.625z"/>
</g>
</svg>
